HIERARCHY
ROOT Pelvis
{
	OFFSET 0.000000 0.000000 0.000000
	CHANNELS 6 Xposition Yposition Zposition Zrotation Yrotation Xrotation 
	JOINT Left_hip
	{
		OFFSET 0.070241 -0.085575 -0.010474
		CHANNELS 3 Zrotation Yrotation Xrotation
		JOINT Left_knee
		{
			OFFSET 0.032125 -0.356873 -0.000555
			CHANNELS 3 Zrotation Yrotation Xrotation
			JOINT Left_ankle
			{
				OFFSET -0.010961 -0.370212 -0.042278
				CHANNELS 3 Zrotation Yrotation Xrotation
				JOINT Left_foot
				{
					OFFSET 0.023322 -0.052281 0.110104
					CHANNELS 3 Zrotation Yrotation Xrotation
					End Site
					{
						OFFSET 0.000000 0.000000 0.000000
					}
				}
			}
		}
	}
	JOINT Right_hip
	{
		OFFSET -0.068518 -0.084320 -0.007402
		CHANNELS 3 Zrotation Yrotation Xrotation
		JOINT Right_knee
		{
			OFFSET -0.037345 -0.364815 -0.003619
			CHANNELS 3 Zrotation Yrotation Xrotation
			JOINT Right_ankle
			{
				OFFSET 0.013394 -0.370006 -0.039954
				CHANNELS 3 Zrotation Yrotation Xrotation
				JOINT Right_foot
				{
					OFFSET -0.019600 -0.045455 0.113223
					CHANNELS 3 Zrotation Yrotation Xrotation
					End Site
					{
						OFFSET 0.000000 0.000000 0.000000
					}
				}
			}
		}
	}
	JOINT Spine1
	{
		OFFSET -0.002404 0.098129 -0.018169
		CHANNELS 3 Zrotation Yrotation Xrotation
		JOINT Spine2
		{
			OFFSET 0.003989 0.127209 -0.001742
			CHANNELS 3 Zrotation Yrotation Xrotation
			JOINT Spine3
			{
				OFFSET 0.001758 0.046641 0.023475
				CHANNELS 3 Zrotation Yrotation Xrotation
				JOINT Neck
				{
					OFFSET -0.003759 0.194901 -0.039982
					CHANNELS 3 Zrotation Yrotation Xrotation
					JOINT Head
					{
						OFFSET 0.003999 0.063756 0.047665
						CHANNELS 3 Zrotation Yrotation Xrotation
						End Site
						{
							OFFSET 0.000000 0.000000 0.000000
						}
					}
				}
				JOINT Left_collar
				{
					OFFSET 0.071816 0.109048 -0.028973
					CHANNELS 3 Zrotation Yrotation Xrotation
					JOINT Left_shoulder
					{
						OFFSET 0.084027 0.032269 -0.006525
						CHANNELS 3 Zrotation Yrotation Xrotation
						JOINT Left_elbow
						{
							OFFSET 0.243854 -0.013992 -0.025905
							CHANNELS 3 Zrotation Yrotation Xrotation
							JOINT Left_wrist
							{
								OFFSET 0.232156 0.008196 -0.000339
								CHANNELS 3 Zrotation Yrotation Xrotation
								JOINT Left_palm
								{
									OFFSET 0.075377 -0.009461 -0.012494
									CHANNELS 3 Zrotation Yrotation Xrotation
									End Site
									{
										OFFSET 0.000000 0.000000 0.000000
									}
								}
							}
						}
					}
				}
				JOINT Right_collar
				{
					OFFSET -0.073768 0.107001 -0.033755
					CHANNELS 3 Zrotation Yrotation Xrotation
					JOINT Right_shoulder
					{
						OFFSET -0.086837 0.032868 -0.009431
						CHANNELS 3 Zrotation Yrotation Xrotation
						JOINT Right_elbow
						{
							OFFSET -0.236446 -0.012544 -0.018747
							CHANNELS 3 Zrotation Yrotation Xrotation
							JOINT Right_wrist
							{
								OFFSET -0.236110 0.006124 -0.004327
								CHANNELS 3 Zrotation Yrotation Xrotation
								JOINT Right_palm
								{
									OFFSET -0.074800 -0.006875 -0.009610
									CHANNELS 3 Zrotation Yrotation Xrotation
									End Site
									{
										OFFSET 0.000000 0.000000 0.000000
									}
								}
							}
						}
					}
				}
			}
		}
	}
}
MOTION
Frames: 14
Frame Time: 0.100000
-0.023665 0.009955 -0.023717 175.845827 22.451428 -15.525006 2.917591 4.604301 7.814235 -2.745161 -5.409620 -2.895025 5.687168 6.508807 -0.956715 -2.782832 12.312779 -13.706533 -5.968341 -0.150665 -14.950566 1.321981 3.724704 38.134881 8.313819 -5.918924 -9.786096 -9.449982 0.901901 6.278144 0.103604 -0.578203 6.441845 1.812991 -1.220758 6.759164 -2.096001 0.693018 -1.186214 2.389810 -0.603629 3.549287 -2.752646 -3.047257 6.874143 -19.384633 5.203304 -3.650344 -52.352744 2.994186 24.667446 3.632323 -84.475592 31.262417 1.787290 1.189269 19.416912 -22.896096 -20.638956 -24.670869 23.600015 -2.093345 1.199966 55.941814 -14.500604 21.365467 -158.936997 64.976430 -140.919226 -18.908435 0.947369 -17.077122 29.910434 13.663957 -12.222529 
-0.024345 0.004507 -0.012556 175.376577 22.220267 -13.844418 2.912791 3.681595 7.026071 -1.464201 -4.155047 -4.480789 3.681334 5.460378 0.127329 -2.474846 12.005879 -12.402143 -3.630604 -1.410419 -13.235299 -0.926906 0.246115 20.125774 9.839846 -7.994433 -7.585334 -11.185856 1.533570 7.454602 -0.342390 0.334261 4.958479 1.733772 -1.836099 6.797253 -1.389865 0.517554 -1.245015 1.564327 0.124034 4.358250 0.007516 -4.742472 5.437169 -17.883514 5.483309 -3.277297 -52.258852 2.614832 23.746205 -23.419480 -84.434167 61.358694 -11.404707 -3.094877 20.457927 -20.180379 -17.030900 -22.034728 22.011643 -2.710244 1.153475 56.821367 -15.425000 18.369552 -152.458893 69.499663 -131.913481 -0.475420 7.049122 -17.771713 25.467556 11.872323 -10.423253 
-0.021408 0.001226 0.009007 176.192611 21.362250 -12.423970 2.645174 3.209231 7.521335 -0.823372 -2.916286 -5.251101 2.934792 5.825809 -0.021188 -1.079769 11.296235 -10.289387 -1.997298 -0.620976 -10.367545 -1.187155 0.921584 9.150211 9.178879 -7.355622 -4.124601 -9.483332 1.656350 7.821382 -0.505508 1.089240 3.014644 1.310296 -1.546571 7.925669 -1.677498 0.583694 -2.134038 1.932957 0.166245 4.756838 0.311908 -5.316127 5.714672 -18.685047 7.377902 -3.890670 -51.417959 2.653894 25.119186 -25.012730 -84.772427 61.018119 -14.089600 -2.712454 18.130043 -20.184666 -16.692537 -23.153731 21.567117 -3.072984 1.400140 56.241113 -15.074194 20.951634 -154.586924 69.865027 -140.137057 7.158816 8.708077 -34.773887 23.995536 11.084951 -9.286656 
-0.013931 -0.002652 0.036515 176.617285 20.361435 -12.226622 3.074414 3.475159 8.015545 -0.047423 -1.909431 -3.132866 2.376104 5.952047 -0.654893 -0.608115 11.505721 -10.405393 -0.818086 -0.884127 -7.649343 -1.182158 0.422392 6.640587 8.254326 -6.551204 -5.098465 -8.546446 0.968972 8.528406 0.241764 1.658737 1.427999 1.198446 -1.060048 9.126848 -1.862348 0.947282 -2.858985 2.641035 0.717508 5.406572 -0.615537 -5.399635 4.966393 -19.909029 8.536513 -3.832418 -53.972943 3.975088 23.851018 7.792149 -84.592504 29.462659 -16.788544 -2.075101 19.200267 -19.999122 -16.599632 -23.066054 21.979335 -2.758100 2.061913 56.828695 -13.786484 20.251434 -150.736381 70.375607 -135.339497 11.383993 10.056459 -34.485307 23.358552 10.872582 -8.806288 
0.001349 -0.006952 0.066833 176.044325 20.177245 -12.915445 4.835236 3.394981 6.978969 0.730846 -1.229219 2.543521 1.258580 5.883185 -1.344102 -0.507753 11.655246 -12.636220 0.841356 -0.932698 -4.757107 -0.491418 0.440890 5.503458 8.217640 -5.753657 -6.708880 -9.691050 0.805105 9.176729 0.717926 1.864743 0.503639 2.107477 -1.599516 9.477888 -1.174338 0.923702 -3.044648 2.145231 1.214333 5.483426 -1.110338 -4.140542 4.769882 -20.550413 8.904935 -2.381095 -58.015842 5.172533 19.813247 30.739398 -84.085353 9.825916 -21.170245 -3.234368 20.912758 -18.476756 -15.021385 -19.368659 23.217110 -3.139644 2.374151 56.134240 -10.854079 16.043548 -142.663506 73.503123 -119.747421 16.383690 10.887389 -15.656367 22.141021 10.443642 -7.658494 
0.021811 -0.009297 0.092471 176.225488 20.667982 -13.407311 6.248447 2.997658 4.805637 1.060062 -1.163430 9.596079 0.378593 5.852146 -1.392190 -0.139272 11.443080 -14.441139 2.130955 -1.279055 -2.155790 0.119826 0.707245 4.478577 7.622588 -5.857892 -8.067613 -10.174882 1.174982 9.110725 0.388614 2.424775 0.096046 2.472519 -2.286291 10.513314 -0.961509 0.815120 -3.583191 1.347625 2.111233 5.495065 -0.650191 -3.985857 5.594671 -19.956277 7.974303 -0.986816 -57.161324 3.440405 19.405209 8.470349 -84.988046 32.148086 -23.394805 -4.346301 19.716990 -18.467064 -14.408721 -18.624773 23.496127 -2.776944 2.866962 56.912103 -9.958525 14.722020 -138.355291 73.949974 -115.642817 18.778192 11.875413 -15.370675 22.266834 10.107834 -6.358396 
0.041908 -0.010443 0.110917 176.692794 21.729831 -13.822675 7.975693 1.672869 -0.648863 -0.315234 -2.371309 21.347596 -1.360389 4.774631 0.212360 0.386961 10.731995 -17.395733 2.530395 -2.103242 -0.234435 1.129608 1.047628 3.856324 8.196394 -6.331396 -9.110607 -13.102967 2.416736 8.109424 -0.033483 3.741216 0.463380 2.231102 -2.927188 11.256905 -0.911495 1.032046 -3.841668 -0.422793 1.957035 5.289770 1.095186 -4.538771 7.175494 -18.608740 6.295656 0.716319 -56.346332 0.059124 18.637162 -24.771601 -84.107588 65.486209 -24.495924 -5.524101 19.388916 -18.165212 -13.854674 -18.178531 22.469058 -2.221680 4.112487 58.457149 -9.278127 12.025294 -139.176501 74.524942 -116.871879 19.334836 12.454343 -13.089309 22.329520 10.415295 -5.226472 
0.058273 -0.009406 0.124525 177.209016 23.466186 -14.406839 10.327242 1.342950 -5.434536 -4.145936 -5.046750 30.491568 -2.459465 4.183205 0.589479 2.762374 9.530263 -16.220567 2.210239 -2.853763 1.441518 2.783767 2.099971 3.530496 4.109952 -7.431967 -10.182741 -7.120889 1.783840 8.402153 -0.232081 4.553829 1.347932 2.039987 -2.642679 11.811503 -1.320902 0.892280 -3.753826 -0.344779 0.510902 4.346658 0.251114 -3.837523 8.023320 -19.213038 8.376691 0.529307 -56.062401 -2.688034 23.405365 -21.876872 -84.828544 52.634967 -0.545782 1.079622 5.732950 -23.862179 -18.134922 -24.111329 21.082491 -2.919098 4.735729 57.280483 -8.497553 17.757904 -157.374919 69.121227 -153.178216 -4.732993 0.789282 -49.002234 28.902597 12.478062 -5.246112 
0.065739 -0.011669 0.135269 177.582337 23.389751 -13.532569 11.682816 2.019697 -5.833785 -2.448659 -5.642982 23.693392 -2.944829 3.859473 1.808697 2.875797 10.233268 -15.052076 2.543896 -2.580282 1.591456 2.698200 1.624762 2.761916 3.841544 -7.310015 -10.517294 -7.107114 0.826863 9.293788 -0.062884 4.256575 2.170990 1.191975 -1.948294 9.929395 -1.455192 0.941066 -3.228583 0.125782 0.581035 1.927556 -0.353105 -4.550090 4.009715 -20.272782 9.943858 -1.007275 -57.426571 0.965916 22.938225 18.431638 -85.150838 13.252808 0.679429 1.774374 5.891399 -23.886694 -18.235787 -23.591357 21.003511 -3.394595 3.513713 56.673814 -8.271020 17.051803 -150.563540 66.662605 -145.287702 -6.887041 -0.482571 -49.092436 28.917554 12.217175 -5.603380 
0.063411 -0.016743 0.142815 178.487058 23.559665 -11.387155 10.383730 2.541060 -4.665805 0.623371 -4.528972 11.212020 -2.497879 3.393460 4.627270 -0.030873 11.844816 -14.111919 2.538469 -2.044188 0.553721 1.231856 0.709713 1.822395 4.762047 -7.106067 -10.153403 -7.202768 -0.378980 10.552856 -0.129185 3.618535 1.639839 0.419254 -1.526330 7.644549 -1.798802 1.217101 -2.558150 -0.394951 1.665968 -1.010320 -1.104246 -5.585933 -1.053138 -19.389134 8.358835 -1.936957 -58.897337 5.522967 22.496708 28.660967 -82.852373 7.806687 7.529297 -0.444474 9.394261 -21.734861 -17.122985 -22.200102 20.999578 -2.452959 2.629199 58.116909 -7.561309 15.300248 -148.400156 62.603593 -134.467242 -24.073653 -1.692319 -31.434563 29.371906 11.583590 -7.448831 
0.057429 -0.018836 0.148192 178.428223 23.976809 -9.927774 9.402346 4.006920 -3.273844 1.858907 -0.804775 4.667035 -2.146266 3.751087 5.811344 -1.383630 12.835069 -13.387938 2.310322 -1.858003 -0.360759 0.987406 -0.310265 1.426137 4.918959 -5.899426 -9.809145 -6.048292 -1.606401 11.245394 0.389269 3.028740 0.437524 0.455099 -1.459991 7.278865 -1.895419 1.440885 -3.335921 -1.167915 3.130770 -2.009457 -2.930794 -5.618933 -3.885700 -19.070219 5.851491 -2.167196 -59.400438 7.176598 22.409946 25.420725 -82.167024 13.734894 10.297443 -3.904086 11.767206 -19.533142 -15.881653 -20.905175 21.453203 -0.421764 2.632710 56.900164 -5.593881 14.942100 -153.884428 62.522482 -132.969940 -33.404291 4.073413 -16.258855 28.670584 11.043890 -8.943928 
0.050430 -0.019479 0.151512 177.516532 25.108585 -10.076406 9.445056 4.642397 -1.434250 2.090768 -0.878061 0.554440 -2.768043 3.574718 5.892032 -0.590706 13.151407 -13.130969 2.622027 -2.244160 0.087351 0.834049 -1.240118 0.993135 4.807700 -5.836282 -9.696247 -6.168651 -2.039234 11.222535 0.842343 2.670233 0.077556 0.540660 -1.654580 7.668033 -1.421001 1.448845 -4.017940 -1.191296 3.102326 -1.528005 -2.983844 -5.743429 -5.832207 -19.431393 3.160361 -2.189195 -59.354121 6.043980 21.685534 18.114325 -83.089585 23.445792 1.445096 -5.070725 17.516307 -18.462519 -15.389372 -19.272155 21.422615 2.047868 2.922687 54.579709 -5.093301 14.863276 -158.626049 70.894648 -131.104610 -19.954559 9.339139 -2.931569 26.210747 11.656946 -9.526090 
0.042027 -0.020282 0.153539 176.636395 26.711570 -11.179982 9.698606 4.205108 0.373665 1.832883 -1.961406 -1.888478 -3.189108 3.228685 5.871404 0.675860 13.319410 -13.443487 2.754254 -2.763326 1.035077 0.447040 -2.204372 1.426339 5.706476 -6.455099 -9.780930 -9.140816 -1.400105 10.481032 0.888562 2.741143 0.649912 0.287351 -1.719308 7.958006 -0.962739 1.300712 -4.143967 -0.642458 2.052867 -1.143657 -1.535182 -7.565906 -6.684473 -19.579728 2.064221 -2.366694 -58.783883 4.482716 20.012362 9.294213 -85.734556 34.076038 -20.651758 -1.897394 23.765842 -18.034288 -15.207276 -17.863049 21.635431 3.512420 2.958372 54.666719 -7.285288 14.862161 -162.460262 78.815923 -129.177003 12.887933 6.449615 6.337526 22.490733 12.568181 -9.880935 
0.031946 -0.020924 0.153584 176.171385 28.046752 -11.817289 9.466753 3.723654 1.684964 1.663438 -2.575873 -3.482298 -3.350434 3.029092 5.665855 1.492094 13.389802 -13.093151 2.452612 -3.002717 1.777221 0.059428 -3.079101 1.529597 6.204659 -6.564178 -9.776155 -10.414158 -1.175519 10.184194 0.971280 2.901880 0.740239 0.008274 -1.534074 8.827747 -0.949548 1.203782 -4.364609 -0.341403 1.464259 -0.566556 -0.948661 -9.213788 -7.543285 -20.673947 2.762042 -2.540406 -57.302661 5.135385 18.239554 21.775153 -87.091660 22.189853 -32.674229 -0.135803 28.044121 -17.371806 -14.818540 -16.930649 22.864095 3.516221 3.217201 54.261412 -10.428723 14.685164 -177.235495 80.554462 -140.237523 31.458637 4.355328 11.967373 19.918792 12.598880 -9.805660 
